
<svg version="1.0" xmlns="http://www.w3.org/2000/svg"
 width="512.000000pt" height="512.000000pt" viewBox="0 0 512.000000 512.000000"
 preserveAspectRatio="xMidYMid meet">
<g transform="translate(0.000000,512.000000) scale(0.100000,-0.100000)"
fill="#000000" stroke="none">
<path d="M2318 4980 c-477 -55 -905 -230 -1279 -525 -41 -32 -132 -117 -204
-189 -200 -201 -330 -385 -455 -641 -156 -318 -233 -621 -246 -970 -13 -318
58 -717 182 -1033 320 -814 1018 -1348 1924 -1473 125 -18 515 -18 640 0 306
42 561 120 820 252 675 342 1116 961 1249 1755 61 365 51 655 -34 997 -45 179
-89 298 -180 482 -352 716 -1018 1203 -1820 1330 -118 19 -484 28 -597 15z
m494 -1059 c429 -74 797 -341 986 -716 106 -213 174 -529 157 -735 -39 -462
-258 -837 -637 -1086 -228 -151 -475 -224 -757 -224 -200 0 -342 27 -525 100
-556 223 -923 810 -867 1388 35 359 158 644 375 870 219 228 481 358 836 415
79 13 326 6 432 -12z"/>
<path d="M2340 3765 c-454 -76 -790 -367 -941 -814 -194 -571 27 -1165 546
-1469 88 -51 201 -97 324 -130 88 -23 113 -26 291 -26 178 0 203 3 291 26 417
112 733 397 873 786 159 443 28 988 -319 1321 -176 169 -371 264 -630 306
-108 18 -330 18 -435 0z m316 -864 c302 -171 550 -314 551 -318 3 -7 -1086
-683 -1101 -683 -3 0 -6 295 -6 655 0 360 2 655 4 655 2 0 251 -139 552 -309z"/>
</g>
</svg>
